<svg width="34" height="34" viewBox="0 0 34 34" fill="none" xmlns="http://www.w3.org/2000/svg">
<path d="M25.5 11.3334C25.5 9.07903 24.6045 6.91703 23.0104 5.32297C21.4163 3.72891 19.2543 2.83337 17 2.83337C14.7457 2.83337 12.5837 3.72891 10.9896 5.32297C9.39553 6.91703 8.5 9.07903 8.5 11.3334C8.5 21.25 4.25 24.0834 4.25 24.0834H29.75C29.75 24.0834 25.5 21.25 25.5 11.3334Z" stroke="#C0C0C0" stroke-width="2" stroke-linecap="round" stroke-linejoin="round"/>
<path d="M19.4508 29.75C19.2018 30.1794 18.8443 30.5358 18.4142 30.7835C17.984 31.0312 17.4964 31.1616 17 31.1616C16.5036 31.1616 16.016 31.0312 15.5859 30.7835C15.1557 30.5358 14.7982 30.1794 14.5492 29.75" stroke="#C0C0C0" stroke-width="2" stroke-linecap="round" stroke-linejoin="round"/>
</svg>
